<svg width="185" height="105" viewBox="0 0 185 105" fill="none" xmlns="http://www.w3.org/2000/svg">
<path d="M71.2344 12.7864L80.4752 2.43266H88.2764L79.0356 12.7864H71.2344ZM77.1601 21.4968L90.6741 6.35185C91.6687 5.18474 92.7788 4.10985 93.9892 3.14175C95.4077 2.02671 97.0694 1.22176 98.8554 0.784488C101.176 0.206101 103.623 0.262591 105.912 0.947386C108.177 1.62214 110.155 2.96549 111.553 4.78034C113.33 7.15926 114.077 10.0904 113.642 12.9733C113.441 14.3941 112.944 15.7631 112.179 17.0009C111.414 18.2387 110.397 19.3207 109.186 20.184C107.801 21.1539 106.198 21.8096 104.502 22.1005C103.543 22.2912 102.567 22.3939 101.588 22.4071H97.7757L90.8717 30.1593H83.0959L94.1463 17.7597L95.0486 16.7439H100.184C101.988 16.7439 103.894 16.7439 105.455 15.7857H105.486C106.218 15.3073 106.821 14.6716 107.243 13.9308C107.666 13.19 107.897 12.3651 107.917 11.5237C107.937 10.6823 107.746 9.84836 107.36 9.09013C106.973 8.33191 106.402 7.671 105.694 7.16156L105.618 7.10885L105.577 7.08011L105.521 7.04178C104.629 6.44784 103.571 6.11465 102.48 6.08354H102.419C101.714 6.05275 101.008 6.1222 100.325 6.28956C99.3703 6.53155 98.4827 6.96819 97.7251 7.56881C96.803 8.3224 95.9547 9.15304 95.1905 10.0506L84.9207 21.5495L77.1601 21.4968Z" fill="#FF6600"/>
<path fill-rule="evenodd" clip-rule="evenodd" d="M80.5581 46.0257C79.2624 47.429 76.7183 47.0758 74.9592 47.1171C73.7819 47.1171 71.8468 46.6685 72.1106 45.2397C72.1106 45.1601 72.2358 44.4314 72.2392 44.3742H74.401C75.037 44.3742 74.8577 44.5524 74.7799 45.0742C74.719 45.6852 75.5106 45.9016 76.0383 45.892C76.6507 45.892 77.466 45.9748 77.9701 45.5738C78.0756 45.5009 78.1604 45.4048 78.217 45.2938C78.2915 45.2111 78.4471 43.9732 78.4775 43.8491V43.8332C78.4166 42.6813 76.3293 43.0854 75.541 43.0154C74.8971 43.0282 74.2585 42.9031 73.6736 42.6495C73.1661 42.4076 72.6587 41.943 72.723 41.3766C72.723 41.3543 72.8414 40.1483 72.8414 40.1292C72.883 39.9386 72.9642 39.7575 73.0803 39.5965C73.1964 39.4354 73.3451 39.2974 73.518 39.1905C74.8205 38.1849 76.9619 38.4172 78.535 38.3981C79.2656 38.3755 79.988 38.5476 80.619 38.8946C80.6915 38.94 80.7615 38.9889 80.8287 39.0409C80.9849 39.1581 81.1178 39.3003 81.2212 39.461C81.3101 39.5949 81.3608 39.7481 81.3685 39.9058C81.3762 40.0635 81.3406 40.2205 81.2652 40.3615H79.0831C78.623 40.3615 78.7448 40.3106 78.5181 40.0051C78.3858 39.865 78.2206 39.7558 78.0357 39.6862C77.8507 39.6166 77.651 39.5885 77.4525 39.6042C76.8368 39.5851 76.079 39.6042 75.6561 40.0847C75.4632 40.2247 75.4497 40.6988 75.4091 40.9088C75.3144 41.5007 75.8963 41.6757 76.6372 41.663C77.5472 41.6821 78.9376 41.5675 79.7901 41.8826L79.8916 41.9176C79.8916 41.9176 80.7882 42.3281 81.0351 42.7322C81.3734 43.1554 80.8998 44.8642 80.8795 45.4083C80.8321 45.6429 80.7214 45.862 80.5581 46.0448V46.0257ZM58.0811 42.6017C57.8922 42.6692 57.6976 42.7213 57.4992 42.7576C56.5655 42.9868 55.0702 42.5572 54.6676 43.6582C54.6676 43.8141 54.4376 45.1474 54.4883 45.2747C54.6236 45.7647 55.2596 45.9111 55.74 45.9111C55.916 45.9111 56.9207 45.9111 57.0933 45.9111C57.3234 45.8887 57.5472 45.8261 57.753 45.7266C57.8819 45.6696 57.997 45.5884 58.0913 45.4879C58.1811 45.3928 58.2409 45.276 58.2638 45.1506C58.2875 44.9724 58.6292 42.484 58.6393 42.4044C58.4769 42.4267 58.23 42.5349 58.0811 42.5826V42.6017ZM61.6401 40.091L60.6489 46.8721V46.9771C59.9011 47.1422 59.1288 47.1864 58.3653 47.1076C58.1014 47.0726 57.983 46.9899 58.071 46.6112C57.0042 47.0379 55.8436 47.2158 54.6879 47.1299C54.0165 47.1384 53.3516 47.0046 52.7427 46.7385C52.2352 46.503 51.7277 46.0511 51.8022 45.4656C51.8022 45.4656 52.1168 43.5564 52.1134 43.5564C52.1247 43.457 52.1462 43.359 52.1777 43.2636C52.1958 43.208 52.2184 43.1537 52.2454 43.1013C52.2737 43.046 52.3065 42.9928 52.3435 42.9422C52.3717 42.9025 52.4022 42.8643 52.4348 42.8277C52.5947 42.6402 52.7854 42.4779 52.9998 42.3472C53.3864 42.1102 53.8131 41.9369 54.2617 41.8348C55.0364 41.6121 56.6535 41.7139 57.4688 41.6916C57.8739 41.701 58.2702 41.5797 58.592 41.348C58.7018 41.2698 58.7891 41.167 58.8457 41.0488C58.8964 40.871 58.9348 40.6903 58.9607 40.5079C58.971 40.4176 58.9606 40.3264 58.9302 40.2402C58.8999 40.154 58.8503 40.075 58.7848 40.0083C58.3518 39.5373 57.5094 39.6583 56.9207 39.6455C56.6824 39.6443 56.446 39.6854 56.2238 39.7665C55.6115 39.9542 55.6927 40.4252 55.0804 40.3647H52.8645V40.3074C52.8729 40.1999 52.8922 40.0933 52.922 39.9892C53.0836 39.6084 53.3784 39.2908 53.7576 39.0887C54.5361 38.645 55.4322 38.4178 56.3422 38.4331C57.1981 38.4618 59.2618 38.3345 60.0636 38.5732C60.3937 38.6521 60.7079 38.7811 60.9939 38.955C61.3258 39.1415 61.5682 39.4413 61.6705 39.7919C61.6766 39.8862 61.6663 39.9808 61.6401 40.0719V40.091ZM118.029 42.6049C117.838 42.669 117.642 42.7211 117.444 42.7608C116.493 42.9868 115.011 42.5699 114.612 43.6645C114.612 43.8205 114.385 45.1538 114.433 45.2779C114.571 45.7711 115.207 45.9143 115.684 45.9143C115.864 45.9143 116.868 45.9143 117.038 45.9143C117.273 45.8946 117.503 45.833 117.714 45.7329C117.842 45.6742 117.957 45.5933 118.052 45.4943C118.143 45.3985 118.201 45.2803 118.222 45.1538C118.249 44.9756 118.587 42.4903 118.601 42.4076C118.421 42.4267 118.174 42.5381 118.029 42.5858V42.6049ZM121.588 40.091L120.603 46.853V46.9612C119.855 47.1245 119.083 47.1686 118.32 47.0917C118.052 47.0567 117.934 46.974 118.022 46.5953C116.955 47.02 115.794 47.1969 114.639 47.1108C113.967 47.12 113.301 46.9874 112.69 46.7226C112.183 46.4839 111.675 46.0352 111.753 45.4497L112.064 43.5404C112.078 43.4412 112.1 43.3432 112.132 43.2477C112.149 43.1917 112.172 43.1373 112.2 43.0854C112.229 43.0293 112.261 42.9751 112.298 42.9231L112.389 42.8054C112.553 42.621 112.743 42.4592 112.954 42.3249C113.343 42.0883 113.77 41.9141 114.219 41.8094C114.994 41.5898 116.611 41.6885 117.427 41.6694C117.831 41.6747 118.226 41.5539 118.55 41.3257C118.656 41.2452 118.742 41.1429 118.8 41.0266C118.854 40.8484 118.892 40.6664 118.915 40.4824C118.925 40.3919 118.914 40.3005 118.883 40.2143C118.852 40.1282 118.802 40.0492 118.736 39.9828C118.306 39.5151 117.464 39.6328 116.875 39.6201C116.637 39.6194 116.4 39.6615 116.178 39.7442C115.566 39.9287 115.647 40.3997 115.031 40.3392H112.819V40.282C112.829 40.1746 112.848 40.0682 112.876 39.9637C113.037 39.5824 113.332 39.2646 113.712 39.0632C114.49 38.6181 115.386 38.3897 116.297 38.4045C117.149 38.4363 119.216 38.3059 120.018 38.5477C120.348 38.6259 120.663 38.7549 120.948 38.9296C121.226 39.0925 121.444 39.3311 121.574 39.6137C121.595 39.6628 121.61 39.7141 121.618 39.7665C121.626 39.8692 121.616 39.9724 121.588 40.0719V40.091ZM47.3771 39.6233C46.5957 39.6233 45.4387 39.5501 45.2492 40.4442L44.5354 45.087C44.5252 45.1502 44.5252 45.2146 44.5354 45.2779C44.5569 45.3677 44.5981 45.4523 44.6564 45.5262C44.7146 45.6002 44.7886 45.6619 44.8737 45.7075C45.1424 45.8503 45.4482 45.9198 45.7567 45.9079C46.3656 45.9079 47.1674 45.9875 47.6715 45.5897C47.7769 45.5168 47.8618 45.4207 47.9184 45.3097C47.9453 45.2514 47.9657 45.1906 47.9793 45.1283L48.6932 40.4729V40.4379C48.754 39.7665 47.9117 39.6042 47.3771 39.6042V39.6233ZM49.1972 38.4427C49.6517 38.4917 50.0931 38.6178 50.4997 38.815C50.6342 38.8841 50.7621 38.964 50.882 39.0537C50.9853 39.1322 51.0784 39.2219 51.1594 39.321C51.2702 39.4524 51.3477 39.6058 51.3861 39.7696C51.4943 39.8683 50.591 45.3988 50.564 45.577C50.5372 45.657 50.5032 45.7347 50.4625 45.8093C50.0261 46.4998 49.2581 46.7926 48.4766 46.9899C47.3061 47.2381 45.3372 47.2572 44.3358 46.6207C44.3358 46.7289 43.9027 49.3892 43.8757 49.5706C43.6307 49.69 43.3611 49.758 43.0854 49.7701C42.8098 49.7822 42.5346 49.738 42.2789 49.6406C41.5008 49.3224 41.3485 48.6509 41.4568 47.8363L42.8506 38.6432V38.5382C43.4562 38.4502 44.0681 38.4066 44.6809 38.4077C45.124 38.43 45.5503 38.4077 45.4759 38.9614C46.6092 38.344 47.9455 38.325 49.1972 38.4236V38.4427ZM107.288 39.6264C106.506 39.6264 105.352 39.5533 105.16 40.4474L104.446 45.0933C104.437 45.1556 104.437 45.2187 104.446 45.2811C104.468 45.3711 104.509 45.456 104.567 45.5305C104.625 45.6049 104.699 45.6673 104.784 45.7138C105.054 45.854 105.359 45.9222 105.667 45.9111C106.276 45.9111 107.081 45.9939 107.582 45.5929C107.688 45.5188 107.772 45.4216 107.829 45.3097C107.858 45.2521 107.878 45.1911 107.89 45.1283L108.604 40.4729V40.4379C108.664 39.7696 107.826 39.6074 107.288 39.6074V39.6264ZM109.108 38.4459C109.563 38.4946 110.004 38.6219 110.41 38.8214C110.545 38.8894 110.672 38.9682 110.792 39.0568C110.897 39.1357 110.99 39.2266 111.07 39.3273C111.18 39.4591 111.257 39.6124 111.297 39.776C111.405 39.8746 110.501 45.4052 110.474 45.5865C110.449 45.666 110.415 45.7428 110.373 45.8157C109.937 46.5062 109.172 46.7989 108.387 46.9962C107.71 47.1274 107.017 47.1744 106.327 47.1362C105.596 47.1541 104.875 46.9776 104.246 46.6271C104.229 46.7321 103.813 49.3924 103.786 49.5769C103.541 49.6955 103.271 49.7631 102.996 49.7752C102.72 49.7873 102.445 49.7435 102.189 49.6469C101.411 49.3287 101.259 48.6605 101.367 47.8427L102.761 38.6527L102.778 38.5477C103.383 38.4587 103.995 38.414 104.608 38.4141C105.051 38.4363 105.478 38.4141 105.403 38.9709C106.52 38.3472 107.856 38.3313 109.101 38.4268L109.108 38.4459ZM124.392 47.0885C123.78 47.0333 123.195 46.8221 122.701 46.4775C122.597 46.3998 122.503 46.31 122.423 46.2102C122.313 46.0788 122.235 45.9254 122.197 45.7616C122.065 45.8316 122.833 41.2493 122.823 41.173C122.924 40.4952 123.117 39.2446 123.218 38.5636C123.656 38.4651 124.106 38.4276 124.555 38.4522C124.707 38.4587 124.857 38.4844 125.001 38.5286C125.062 38.5481 125.12 38.5715 125.177 38.5986C125.276 38.6501 125.364 38.718 125.438 38.7991C125.476 38.8404 125.51 38.8852 125.539 38.9327C125.689 39.2132 125.729 39.5344 125.651 39.8396C125.444 41.5803 125.157 43.3113 124.893 45.0424C124.974 46.153 126.875 45.997 127.667 45.7711C127.879 45.7002 128.068 45.5784 128.215 45.4179C128.3 45.3177 128.351 45.1957 128.361 45.0679C128.672 43.044 129.054 40.5779 129.359 38.5763C129.796 38.4777 130.246 38.4402 130.695 38.465C130.839 38.4754 130.981 38.5032 131.118 38.5477C131.178 38.5672 131.237 38.5906 131.294 38.6177C131.393 38.6691 131.481 38.7371 131.554 38.8182C131.592 38.8601 131.626 38.9048 131.656 38.9518C131.8 39.2385 131.837 39.5626 131.761 39.8715L130.949 45.5643C130.86 46.4537 130.62 47.3239 130.238 48.1418C129.738 49.0137 128.675 49.4146 127.694 49.6024C126.943 49.7742 125.894 49.6947 125.123 49.6819C124.717 49.6565 123.702 49.6819 123.313 49.6024C123.215 49.5865 123.124 49.5706 123.042 49.5515C122.613 49.4855 122.227 49.2665 121.965 48.9399C121.703 48.6134 121.585 48.2045 121.635 47.7981L123.912 47.814C124.426 47.814 124.132 47.9604 124.331 48.2373C124.866 48.7082 126.023 48.4791 126.659 48.3709C127.508 48.2054 128.012 47.3463 128.12 46.5507C127.719 46.7511 127.293 46.9029 126.852 47.0026C126.039 47.1303 125.212 47.1528 124.392 47.0694V47.0885ZM98.6811 38.4554C98.8777 38.4774 99.0723 38.5135 99.263 38.5636C99.4698 38.6158 99.6713 38.685 99.8652 38.7705C99.9673 38.8155 100.066 38.8676 100.16 38.9264C100.232 38.9713 100.302 39.0202 100.369 39.0728L100.417 39.1109C100.498 39.1876 100.575 39.2684 100.647 39.3528C100.687 39.4005 100.721 39.4546 100.755 39.5023C100.785 39.5513 100.811 39.6024 100.833 39.6551C100.853 39.7057 100.869 39.7579 100.88 39.811C100.892 39.8633 100.899 39.9166 100.9 39.9701C100.579 42.379 100.163 44.7783 99.8111 47.1808C99.7265 47.2062 99.6317 47.2349 99.5573 47.2508C99.2655 47.3201 98.9619 47.3341 98.6642 47.2922C98.5499 47.2744 98.4369 47.25 98.3259 47.219C98.1646 47.1663 98.0137 47.0889 97.8793 46.9899C97.7767 46.9124 97.6867 46.8213 97.6121 46.7194C97.5736 46.668 97.5396 46.6137 97.5106 46.5571C97.3892 46.2983 97.3538 46.011 97.4091 45.7329C97.6707 44.0019 97.9346 42.2708 98.2007 40.5397C98.1991 40.5334 98.1991 40.5269 98.2007 40.5206C98.2076 40.4614 98.2076 40.4016 98.2007 40.3424C98.1713 40.2235 98.1095 40.1138 98.0214 40.0242C97.9264 39.9253 97.8114 39.8453 97.6831 39.7887C97.6096 39.7546 97.5325 39.728 97.4531 39.7092C97.1359 39.6455 96.8087 39.639 96.4889 39.6901C96.3312 39.7186 96.177 39.7623 96.0288 39.8206C95.8386 39.8953 95.6737 40.0174 95.5518 40.1738C95.0173 42.4458 94.8481 44.8324 94.4455 47.1458H91.8034C92.1417 44.9438 92.4597 42.7449 92.798 40.5461C92.8065 40.4859 92.8065 40.4249 92.798 40.3647C92.7871 40.3053 92.7677 40.2475 92.7405 40.1929C92.6793 40.0791 92.5885 39.9816 92.4766 39.9097C92.4199 39.8695 92.3586 39.8353 92.2939 39.8078C92.0749 39.7155 91.8369 39.6698 91.597 39.6742C91.342 39.6452 91.0833 39.6702 90.8398 39.7472C90.5963 39.8243 90.3742 39.9515 90.1897 40.1197C89.5976 42.379 89.513 44.8006 89.08 47.1203H86.3533C86.7908 44.2628 87.2261 41.4063 87.6591 38.5509C88.3504 38.4714 89.048 38.4522 89.7431 38.4936C90.0577 38.5222 90.3081 38.6145 90.3926 38.9296C90.6116 38.8227 90.8376 38.7291 91.0692 38.6495C91.2331 38.5954 91.4003 38.5507 91.5699 38.5159C92.1758 38.3915 92.8008 38.3731 93.4137 38.4618C93.5253 38.4777 93.6404 38.5 93.752 38.5254C93.8636 38.5509 93.9719 38.5859 94.0734 38.6209C94.1749 38.6559 94.2764 38.6941 94.3677 38.7323C94.6799 38.8672 94.9632 39.0549 95.2033 39.286C95.7162 38.9032 96.3177 38.6394 96.9591 38.5159C97.3204 38.4427 97.6891 38.4065 98.0586 38.4077C98.2699 38.404 98.4813 38.4136 98.6913 38.4363L98.6811 38.4554ZM83.7314 38.4554C84.0659 38.397 84.407 38.3788 84.7463 38.4013C84.8902 38.4135 85.0321 38.4412 85.1692 38.4841C85.2302 38.5032 85.2891 38.5277 85.3451 38.5573C85.4447 38.6065 85.5332 38.6735 85.6056 38.7545C85.6432 38.7964 85.6772 38.8411 85.7071 38.8882C85.7371 38.9383 85.7631 38.9904 85.7849 39.0441C86.0386 39.6519 85.3823 42.484 85.3485 43.165L84.7869 46.9994L84.7666 47.1203H82.1075L82.1312 46.9612L82.7808 42.6622L83.3965 38.6113V38.5127L83.7314 38.4554ZM70.5375 46.0448C69.2384 47.4513 66.6978 47.0949 64.9352 47.1362C63.7613 47.1362 61.8228 46.6907 62.09 45.2588C62.09 45.1792 62.2118 44.4505 62.2152 44.3933H64.377C65.013 44.3933 64.8337 44.5715 64.7593 45.0901C64.695 45.7043 65.49 45.9207 66.0178 45.9111C66.6267 45.9111 67.442 45.9939 67.9495 45.5929C68.0531 45.5182 68.1375 45.4225 68.1964 45.3129C68.2709 45.2302 68.4265 43.9923 68.4569 43.8682V43.8523C68.3825 42.694 66.3155 43.1077 65.5171 43.0345C64.8731 43.0473 64.2345 42.9222 63.6496 42.6685C63.1422 42.4235 62.6347 41.9589 62.7024 41.3957C62.7024 41.3734 62.8174 40.1706 62.8174 40.1483C62.859 39.9577 62.9402 39.7766 63.0563 39.6156C63.1724 39.4545 63.3211 39.3165 63.494 39.2096C64.3108 38.6724 65.2887 38.3948 66.285 38.4172C67.5469 38.4618 69.4989 38.2009 70.595 38.9168C70.6694 38.9614 70.7439 39.0123 70.8082 39.06C70.964 39.1778 71.0958 39.3212 71.1972 39.4832C71.2857 39.6166 71.3365 39.7691 71.3448 39.9261C71.3531 40.0832 71.3186 40.2396 71.2446 40.3806H69.0625C68.6024 40.3806 68.7073 40.3297 68.4975 40.0242C68.3644 39.8842 68.1986 39.7752 68.0131 39.7056C67.8276 39.6361 67.6275 39.6079 67.4285 39.6233C66.8162 39.6042 66.055 39.6233 65.6355 40.1038C65.4426 40.247 65.4291 40.7179 65.3885 40.9279C65.2938 41.5198 65.8757 41.6948 66.6166 41.6821C67.5266 41.7012 68.917 41.5866 69.7729 41.9017L69.8711 41.9367C70.3394 42.0835 70.742 42.3736 71.0145 42.7608C71.3528 43.1841 70.8758 44.8897 70.8555 45.4338C70.8011 45.6518 70.6907 45.8539 70.5341 46.0225L70.5375 46.0448Z" fill="#1843BF"/>
<path fill-rule="evenodd" clip-rule="evenodd" d="M86.1739 37.2184H83.5352L83.799 35.4746H86.4311L86.1739 37.2184Z" fill="#FF6600"/>
<path fill-rule="evenodd" clip-rule="evenodd" d="M132.195 45.9756C132.195 45.4775 132.621 45.0527 133.133 45.0527C133.645 45.0527 134.06 45.4775 134.06 45.9756C134.06 46.4736 133.634 46.9084 133.133 46.9084C132.633 46.9084 132.195 46.4836 132.195 45.9756Z" fill="#1843BF"/>
<path fill-rule="evenodd" clip-rule="evenodd" d="M134.762 40.1007C134.762 39.5915 135.188 39.168 135.688 39.168C136.189 39.168 136.626 39.5928 136.626 40.1007C136.626 40.6087 136.2 41.0335 135.688 41.0335C135.177 41.0335 134.762 40.6087 134.762 40.1007ZM134.878 41.4471H136.508V46.7917H134.878V41.4471Z" fill="#1843BF"/>
<path fill-rule="evenodd" clip-rule="evenodd" d="M137.568 44.7113V43.4705C137.568 41.8061 138.601 41.2969 140.572 41.2969C142.543 41.2969 143.577 41.8061 143.577 43.4705V44.7113C143.577 46.3756 142.511 46.8749 140.582 46.8749C138.653 46.8749 137.566 46.3769 137.566 44.7113H137.568ZM141.957 44.7113V43.4705C141.957 42.6756 141.605 42.2719 140.582 42.2719C139.559 42.2719 139.197 42.6743 139.197 43.4705V44.7113C139.197 45.4962 139.549 45.8987 140.582 45.8987C141.615 45.8987 141.957 45.4962 141.957 44.7113Z" fill="#1843BF"/>
<rect x="0.832031" y="54.7773" width="50" height="50" rx="25" fill="white"/>
<path d="M25.8359 101.027C37.572 101.027 47.0859 91.5134 47.0859 79.7773C47.0859 68.0413 37.572 58.5273 25.8359 58.5273C14.0999 58.5273 4.58594 68.0413 4.58594 79.7773C4.58594 91.5134 14.0999 101.027 25.8359 101.027Z" fill="#26A17B"/>
<path fill-rule="evenodd" clip-rule="evenodd" d="M28.5847 81.8089V81.8063C28.4374 81.817 27.678 81.8625 25.9838 81.8625C24.6311 81.8625 23.6789 81.8223 23.3441 81.8063V81.8103C18.1369 81.5813 14.2503 80.6746 14.2503 79.5897C14.2503 78.5063 18.1369 77.5996 23.3441 77.3665V80.9076C23.6843 80.9317 24.6593 80.9893 26.0066 80.9893C27.6231 80.9893 28.4334 80.9223 28.5847 80.9089V77.3692C33.7811 77.6009 37.6584 78.5076 37.6584 79.5897C37.6584 80.6746 33.7811 81.5786 28.5847 81.8089V81.8089ZM28.5847 77.0009V73.8321H35.8356V69H16.0932V73.8321H23.3441V76.9996C17.4512 77.2701 13.0195 78.4379 13.0195 79.8362C13.0195 81.2344 17.4512 82.4009 23.3441 82.6728V92.8272H28.5847V82.6701C34.4682 82.3996 38.8892 81.233 38.8892 79.8362C38.8892 78.4393 34.4682 77.2728 28.5847 77.0009" fill="white"/>
<rect x="34.1641" y="54.7773" width="50" height="50" rx="25" fill="white"/>
<path d="M79.7826 84.8973C76.9549 96.2947 65.4421 103.22 54.0447 100.392C42.6473 97.5643 35.7223 86.0226 38.55 74.6541C41.3777 63.2567 52.8905 56.3317 64.2591 59.1594C75.5988 61.9294 82.5815 73.3556 79.8115 84.6953C79.8115 84.753 79.7826 84.8396 79.7826 84.8973Z" fill="#F7931A"/>
<path d="M68.6891 76.5042C69.0091 73.682 66.827 72.14 64.0048 71.1798L64.9358 67.4265L62.4336 66.7864L61.5026 70.5397C60.8916 70.2197 60.2515 70.2197 59.6405 69.9287L60.5715 66.1755L58.3894 65.5645L57.4583 69.6378C56.8473 69.6378 56.5273 69.3177 55.8872 69.3177L52.774 68.3867L52.1048 70.8598C52.6285 70.9471 53.1523 71.0343 53.676 71.1798C54.607 71.4999 54.9271 72.1109 54.9271 72.4309L53.676 77.1152L52.1048 83.3707C52.1048 83.6907 51.7848 83.9817 51.1738 83.9817L49.6027 83.6616L48.3516 86.1638L51.4647 86.7748C51.9885 86.8621 52.5122 86.9494 53.0359 87.0949L52.1048 90.8481L54.607 91.4591L55.5381 87.7059C56.1491 88.0259 56.7892 88.0259 57.4002 88.3168L56.1491 92.0701L58.6512 92.6811L59.5823 88.9278C63.6556 89.5388 66.4487 89.2479 67.6998 85.8147C68.7182 83.8362 67.9326 81.3922 65.9541 80.3739C65.8087 80.2866 65.6632 80.2284 65.5177 80.1702C67.2634 79.7338 68.4854 78.2499 68.6891 76.5042ZM63.3647 84.0108C62.4336 87.1239 57.7493 85.5819 56.1782 84.9418L57.4292 79.6174C59.0004 80.2575 64.0048 81.1885 63.3647 84.0108ZM64.0048 76.5042C63.3938 79.3265 59.3204 77.7553 58.0693 77.4353L59.3204 72.751C60.5715 73.0419 64.6158 73.682 64.0048 76.5042Z" fill="white"/>
<rect x="67.5" y="54.7773" width="50" height="50" rx="25" fill="white"/>
<path d="M92.5039 101.027C104.24 101.027 113.754 91.5134 113.754 79.7773C113.754 68.0413 104.24 58.5273 92.5039 58.5273C80.7679 58.5273 71.2539 68.0413 71.2539 79.7773C71.2539 91.5134 80.7679 101.027 92.5039 101.027Z" fill="#E2EAF2"/>
<path d="M92.5022 63.7051L92.2344 64.3747V85.6694L92.5022 85.9372L102.413 80.0444L92.5022 63.7051Z" fill="#31383E"/>
<path d="M92.4967 63.7051L82.5859 80.0444L92.4967 85.9372V75.6247V63.7051Z" fill="#8C8C8C"/>
<path d="M92.4933 87.8108L92.3594 87.9448V95.4448L92.4933 95.8465L102.404 81.918L92.4933 87.8108Z" fill="#3C3C3B"/>
<path d="M92.4967 95.8465V87.8108L82.5859 81.918L92.4967 95.8465Z" fill="#8C8C8C"/>
<path d="M92.5 85.9395L102.411 80.0466L92.5 75.627V85.9395Z" fill="#141414"/>
<path d="M82.5859 80.0466L92.4967 85.9395V75.627L82.5859 80.0466Z" fill="#393939"/>
<rect x="100.832" y="54.7773" width="50" height="50" rx="25" fill="white"/>
<circle cx="125.836" cy="79.7773" r="21.25" fill="white"/>
<path d="M125.836 58.5273C121.633 58.5273 117.525 59.7736 114.03 62.1086C110.536 64.4436 107.812 67.7624 106.204 71.6453C104.595 75.5283 104.174 79.8009 104.994 83.923C105.814 88.0451 107.838 91.8314 110.81 94.8033C113.782 97.7752 117.568 99.7991 121.69 100.619C125.812 101.439 130.085 101.018 133.968 99.4098C137.851 97.8014 141.17 95.0777 143.505 91.5831C145.84 88.0886 147.086 83.9802 147.086 79.7773C147.086 74.1415 144.847 68.7365 140.862 64.7513C136.877 60.7662 131.472 58.5273 125.836 58.5273ZM126.14 80.3845L124.015 87.9738H135.854C136.01 87.9875 136.157 88.0558 136.268 88.1669C136.379 88.2779 136.447 88.4244 136.461 88.5809L135.55 91.9202C135.537 92.0766 135.468 92.2232 135.357 92.3343C135.246 92.4453 135.1 92.5137 134.943 92.5273H116.425L119.461 82.2059L116.122 83.4202L116.729 80.9916L120.068 80.0809L124.318 65.813C124.332 65.6566 124.4 65.51 124.511 65.399C124.622 65.288 124.769 65.2196 124.925 65.2059H129.479C130.086 65.2059 130.39 65.2059 130.39 65.813L126.747 77.9559L130.086 77.0452L129.479 79.4737L126.14 80.3845Z" fill="#4055DC"/>
<rect x="134.164" y="54.7773" width="50" height="50" rx="25" fill="white"/>
<path d="M159.168 101.027C170.904 101.027 180.418 91.5134 180.418 79.7773C180.418 68.0413 170.904 58.5273 159.168 58.5273C147.432 58.5273 137.918 68.0413 137.918 79.7773C137.918 91.5134 147.432 101.027 159.168 101.027Z" fill="#D91111"/>
<path d="M173.243 73.4352C172.027 72.5851 170.727 71.6787 169.456 70.7794C169.428 70.7584 169.4 70.7373 169.364 70.7162C169.224 70.6108 169.062 70.4984 168.866 70.4352L168.852 70.4282C165.451 69.6061 161.994 68.763 158.65 67.9481C155.615 67.2104 152.587 66.4726 149.552 65.7349C149.474 65.7139 149.397 65.6928 149.313 65.6717C149.039 65.5944 148.723 65.5101 148.385 65.5523C148.287 65.5663 148.203 65.6015 148.126 65.6506L148.041 65.7209C147.908 65.8474 147.837 66.0089 147.802 66.1003L147.781 66.1565V66.4797L147.795 66.5289C149.713 71.9036 151.681 77.3556 153.578 82.6319C155.039 86.6928 156.556 90.9012 158.039 95.0324C158.13 95.3134 158.39 95.4961 158.713 95.5242H158.784C159.086 95.5242 159.353 95.3766 159.486 95.1378L165.051 87.023C166.407 85.0488 167.763 83.0675 169.118 81.0933C169.674 80.2853 170.229 79.4703 170.784 78.6623C171.697 77.3274 172.638 75.9504 173.573 74.6085L173.622 74.5382V74.4539C173.643 74.208 173.65 73.7022 173.243 73.4352V73.4352ZM166.723 76.393C165.416 77.0745 164.081 77.7771 162.739 78.4726C163.519 77.6366 164.306 76.7935 165.086 75.9574C166.062 74.9036 167.081 73.8146 168.079 72.7467L168.1 72.7256C168.184 72.6132 168.289 72.5078 168.402 72.3954C168.479 72.3181 168.563 72.2408 168.641 72.1495C169.161 72.5078 169.688 72.8731 170.193 73.2314C170.559 73.4914 170.931 73.7513 171.311 74.0113C169.765 74.7982 168.219 75.6061 166.723 76.393ZM163.364 76.0558C162.36 77.1448 161.32 78.2619 160.287 79.3649C158.285 76.934 156.24 74.468 154.259 72.0862C153.36 71.0043 152.453 69.9153 151.554 68.8333L151.547 68.8263C151.343 68.5944 151.147 68.3415 150.95 68.1026C150.823 67.941 150.69 67.7865 150.556 67.6249C151.371 67.8356 152.193 68.0324 153.001 68.2221C153.711 68.3907 154.449 68.5663 155.172 68.749C159.247 69.7396 163.329 70.7303 167.404 71.7209C166.048 73.1682 164.685 74.6366 163.364 76.0558ZM159.83 89.749C159.908 89.0113 159.992 88.2525 160.062 87.5078C160.126 86.9106 160.189 86.2993 160.252 85.7162C160.35 84.7818 160.456 83.8122 160.54 82.8637L160.561 82.6951C160.631 82.0909 160.702 81.4656 160.744 80.8403C160.821 80.7982 160.905 80.756 160.997 80.7209C161.102 80.6717 161.207 80.6296 161.313 80.5663C162.936 79.7162 164.559 78.8661 166.189 78.023C167.812 77.1799 169.477 76.3087 171.128 75.4445C169.624 77.6225 168.114 79.8216 166.652 81.9645C165.395 83.7982 164.102 85.6881 162.816 87.5499C162.311 88.2947 161.784 89.0534 161.285 89.7841C160.723 90.5991 160.147 91.4352 159.585 92.2712C159.655 91.4282 159.739 90.578 159.83 89.749V89.749ZM150.037 69.283C149.945 69.03 149.847 68.7701 149.763 68.5242C151.659 70.8146 153.57 73.119 155.432 75.3532C156.395 76.5125 157.357 77.6647 158.32 78.831C158.51 79.0488 158.699 79.2806 158.882 79.5054C159.121 79.7935 159.36 80.0956 159.62 80.3837C159.535 81.1073 159.465 81.838 159.388 82.5406C159.339 83.0324 159.289 83.5242 159.233 84.023V84.03C159.212 84.3462 159.17 84.6623 159.135 84.9715C159.086 85.4 158.973 86.3696 158.973 86.3696L158.966 86.4188C158.84 87.838 158.685 89.2712 158.538 90.6623C158.474 91.2385 158.418 91.8286 158.355 92.4188C158.32 92.3134 158.278 92.208 158.243 92.1097C158.137 91.8286 158.032 91.5335 157.933 91.2455L157.182 89.1588C154.8 82.5335 152.418 75.9153 150.037 69.283Z" fill="white"/>
</svg>
